<?xml version="1.0" encoding="utf-8"?>
<!-- Generator: Adobe Illustrator 23.0.4, SVG Export Plug-In . SVG Version: 6.00 Build 0)  -->
<svg version="1.1" id="Ebene_1" xmlns="http://www.w3.org/2000/svg" xmlns:xlink="http://www.w3.org/1999/xlink" x="0px" y="0px"
	 viewBox="0 0 171.2 160.1" style="enable-background:new 0 0 171.2 160.1;" xml:space="preserve">
<g>
	<g>
		<path d="M137.5,6.3c10.6,0,20.3,0,30.5,0c0,48.9,0,97.8,0,147c-9.9,0-19.8,0-30.2,0c0-21.7,0-43.2,0-65.2c-19.3,0-38,0-57,0
			c0,13.2,0,26.2,0,39.8c8.1-3.3,12.7-9.2,15.8-16.7c3.5-8.5,3.5-8.5,12.8-8.5c6.6,0,13.3,0,20.6,0c-0.4,2.3-0.6,4.2-1,6
			c-8.7,34.6-37.2,53.2-72.8,47.6C31,152.4,14,138.4,6,114.6c-8.2-24.3-8.2-49.1,1.6-72.9c10.3-25,29.6-38.5,56.9-38.8
			c8.9-0.1,18.1,0.8,26.6,3.3c21.8,6.5,34.3,21.9,38.9,44c0.3,1.3,0.2,2.6,0.4,4.5c-9.8,0-19.2,0.1-28.7-0.2c-1.1,0-2.6-2.1-3.2-3.5
			c-2.4-6.5-5.3-12.6-11.3-16.6c-1.9-1.2-4-2.1-6.5-3.4c0,10.7,0,20.6,0,30.9c18.9,0,37.6,0,56.8,0C137.5,43.4,137.5,25.2,137.5,6.3
			z M49.2,124.1c0-29.8,0-59.3,0-89.1C27,49.2,26.1,111.8,49.2,124.1z"/>
	</g>
</g>
</svg>
